<?xml version="1.0" encoding="UTF-8" standalone="no"?>
<svg
   width="294pt"
   height="90pt"
   viewBox="0 0 294 90"
   version="1.1"
   id="svg128"
   sodipodi:docname="BarCamp Full.svg"
   inkscape:version="1.2.2 (b0a8486541, 2022-12-01)"
   xmlns:inkscape="http://www.inkscape.org/namespaces/inkscape"
   xmlns:sodipodi="http://sodipodi.sourceforge.net/DTD/sodipodi-0.dtd"
   xmlns:xlink="http://www.w3.org/1999/xlink"
   xmlns="http://www.w3.org/2000/svg"
   xmlns:svg="http://www.w3.org/2000/svg">
  <defs
     id="defs132">
    <linearGradient
       inkscape:collect="always"
       xlink:href="#linearGradient4671"
       id="linearGradient1475"
       gradientUnits="userSpaceOnUse"
       gradientTransform="matrix(0.1724421,0,0,0.17410693,39.504315,24.269914)"
       x1="150.96111"
       y1="192.35176"
       x2="112.03144"
       y2="137.27299" />
    <linearGradient
       id="linearGradient4671">
      <stop
         style="stop-color:#ffd43b;stop-opacity:1;"
         offset="0"
         id="stop4673" />
      <stop
         style="stop-color:#ffe873;stop-opacity:1"
         offset="1"
         id="stop4675" />
    </linearGradient>
    <linearGradient
       inkscape:collect="always"
       xlink:href="#linearGradient4689"
       id="linearGradient1478"
       gradientUnits="userSpaceOnUse"
       gradientTransform="matrix(0.1724421,0,0,0.17410693,39.504315,24.269914)"
       x1="26.648937"
       y1="20.603781"
       x2="135.66525"
       y2="114.39767" />
    <linearGradient
       id="linearGradient4689">
      <stop
         style="stop-color:#5a9fd4;stop-opacity:1;"
         offset="0"
         id="stop4691" />
      <stop
         style="stop-color:#306998;stop-opacity:1;"
         offset="1"
         id="stop4693" />
    </linearGradient>
  </defs>
  <sodipodi:namedview
     id="namedview130"
     pagecolor="#ffffff"
     bordercolor="#000000"
     borderopacity="0.25"
     inkscape:showpageshadow="2"
     inkscape:pageopacity="0.0"
     inkscape:pagecheckerboard="0"
     inkscape:deskcolor="#d1d1d1"
     inkscape:document-units="pt"
     showgrid="false"
     inkscape:zoom="4.505102"
     inkscape:cx="196"
     inkscape:cy="76.801812"
     inkscape:window-width="1920"
     inkscape:window-height="1011"
     inkscape:window-x="1920"
     inkscape:window-y="32"
     inkscape:window-maximized="1"
     inkscape:current-layer="svg128" />
  <g
     transform="translate(6.17773, 3.72168)"
     style="fill:#364b60;fill-rule:nonzero;stroke:none;stroke-width:1;stroke-linecap:butt;stroke-linejoin:miter;stroke-dasharray:none;fill-opacity:1"
     id="g86">
    <path
       d="M34.5909 35.5508 C38.7022 33.8369 38.8662 27.2998 37.0401 23.8906 C34.5909 19.3183 28.4073 20.0781 24.2325 21.2715 C25.3897 17.9472 27.5127 13.4062 31.3467 12.75 C35.1534 12.0986 38.8799 14.4619 42.1905 15.9931 C45.1465 17.3623 50.3438 19.0801 52.4786 15.3457 C53.127 13.7695 51.2012 12.4707 49.5127 11.3994 C47.8282 10.3291 46.0342 9.30372 44.1612 8.60152 C84.7119 0 85.8301 85.081 42.9004 72.9551 C39.8008 72.081 36.8194 70.8213 33.9502 69.3672 C37.959 69.7002 42.2774 69.2754 45.4854 66.6748 C48.2325 64.4482 49.6827 59.8037 45.1563 58.7246 C41.0879 57.7549 36.6573 60.2324 32.6446 60.5732 C27.5918 61.0019 23.2832 61.1289 20.4102 57.1445 C22.6338 56.8672 24.3555 56.2754 25.2286 55.6435 C26.7403 54.5508 28.2051 53.0205 28.3379 51.0713 C28.5948 47.3408 25.7286 43.8467 22.5186 42.2578 C21.0342 41.5244 19.2578 41.2627 17.6543 41.7353 C15.5889 42.3447 14.9932 44.1269 13.5469 45.4971 C12.1309 46.8379 10.8086 47.8193 8.85747 48.209 C6.58207 48.6113 4.38277 47.5185 2.62989 46.1601 C1.67188 45.415 0.85645 44.5137 0 43.6572 C3.65821 44.1797 8.53517 45.123 10.6787 41.0185 C12.4024 37.7168 10.3565 33.9629 12.1787 30.6221 C14.5196 26.334 20.459 29.6943 23.376 31.3789 C26.7227 33.3125 30.0547 37.4394 34.5909 35.5508 Z"
       id="path84"
       style="fill:#364b60;fill-opacity:1" />
  </g>
  <g
     transform="translate(90.0264, 27.1201)"
     style="fill:#364b60;fill-rule:nonzero;stroke:none;stroke-width:1;stroke-linecap:butt;stroke-linejoin:miter;stroke-dasharray:none;fill-opacity:1"
     id="g102">
    <path
       d="M6.2177 0 C6.2177 0 6.2177 12.3955 6.2177 12.3955 C7.3506 11.2637 8.5752 10.4151 9.8906 9.8487 C11.2056 9.2832 12.6146 9 14.1146 9 C17.3736 9 20.1426 10.2305 22.4236 12.6904 C24.7026 15.1494 25.8426 18.3057 25.8426 22.1553 C25.8426 25.8682 24.6636 28.9737 22.3086 31.4717 C19.9516 33.9697 17.1596 35.2188 13.9306 35.2188 C12.4926 35.2188 11.1536 34.9629 9.9131 34.4512 C8.6748 33.9385 7.4424 33.1016 6.2177 31.9395 C6.2177 31.9395 6.2177 34.5938 6.2177 34.5938 C6.2177 34.5938 0 34.5938 0 34.5938 C0 34.5938 0 0 0 0 C0 0 6.2177 0 6.2177 0 Z M12.7996 14.7813 C10.8266 14.7813 9.1884 15.4531 7.8877 16.7949 C6.5869 18.1367 5.9375 19.8906 5.9375 22.0567 C5.9375 24.2676 6.5869 26.0567 7.8877 27.4219 C9.1884 28.7871 10.8266 29.4688 12.7996 29.4688 C14.7116 29.4688 16.3226 28.7754 17.6306 27.3867 C18.9386 26 19.5926 24.2305 19.5926 22.0791 C19.5926 19.9444 18.9506 18.1944 17.6646 16.8291 C16.3796 15.4639 14.7576 14.7813 12.7996 14.7813 Z"
       id="path100"
       style="fill:#364b60;fill-opacity:1" />
  </g>
  <g
     transform="translate(118.043, 36.1201)"
     style="fill:#364b60;fill-rule:nonzero;stroke:none;stroke-width:1;stroke-linecap:butt;stroke-linejoin:miter;stroke-dasharray:none;fill-opacity:1"
     id="g106">
    <path
       d="M19.594 0.625 C19.594 0.625 25.844 0.625 25.844 0.625 C25.844 0.625 25.844 25.5938 25.844 25.5938 C25.844 25.5938 19.594 25.5938 19.594 25.5938 C19.594 25.5938 19.594 22.9395 19.594 22.9395 C18.37 24.1016 17.143 24.9385 15.911 25.4512 C14.68 25.9629 13.346 26.2188 11.908 26.2188 C8.68 26.2188 5.889 24.9697 3.533 22.4717 C1.178 19.9737 0 16.8682 0 13.1553 C0 9.3057 1.139 6.1494 3.418 3.6904 C5.697 1.2305 8.467 0 11.725 0 C13.223 0 14.63 0.2822 15.946 0.8467 C17.262 1.4112 18.477 2.2578 19.594 3.3867 C19.594 3.3867 19.594 0.625 19.594 0.625 Z M13.005 5.7813 C11.066 5.7813 9.455 6.4639 8.173 7.8291 C6.892 9.1944 6.25 10.9444 6.25 13.0791 C6.25 15.2305 6.902 17 8.208 18.3867 C9.513 19.7754 11.12 20.4688 13.028 20.4688 C14.997 20.4688 16.63 19.7871 17.929 18.4219 C19.226 17.0567 19.875 15.2676 19.875 13.0567 C19.875 10.8906 19.226 9.1367 17.929 7.7949 C16.63 6.4531 14.989 5.7813 13.005 5.7813 Z"
       id="path104"
       style="fill:#364b60;fill-opacity:1" />
  </g>
  <g
     transform="translate(147.546, 36.1201)"
     style="fill:#364b60;fill-rule:nonzero;stroke:none;stroke-width:1;stroke-linecap:butt;stroke-linejoin:miter;stroke-dasharray:none;fill-opacity:1"
     id="g110">
    <path
       d="M0 0.625 C0 0.625 5.376 0.625 5.376 0.625 C5.376 0.625 5.376 3.7901 5.376 3.7901 C5.956 2.5498 6.729 1.6084 7.692 0.9649 C8.657 0.3223 9.712 0 10.86 0 C11.671 0 12.518 0.2149 13.407 0.6445 C13.407 0.6445 11.454 6.0498 11.454 6.0498 C10.72 5.6836 10.116 5.5 9.642 5.5 C8.677 5.5 7.86 6.0957 7.194 7.2871 C6.528 8.4785 6.196 10.8164 6.196 14.2988 C6.196 14.2988 6.22 15.5127 6.22 15.5127 C6.22 15.5127 6.22 25.5938 6.22 25.5938 C6.22 25.5938 0 25.5938 0 25.5938 C0 25.5938 0 0.625 0 0.625 Z"
       id="path108"
       style="fill:#364b60;fill-opacity:1" />
  </g>
  <g
     transform="translate(161.713, 36.1201)"
     style="fill:#364b60;fill-rule:nonzero;stroke:none;stroke-width:1;stroke-linecap:butt;stroke-linejoin:miter;stroke-dasharray:none;fill-opacity:1"
     id="g114">
    <path
       d="M25.437 5.8233 C25.437 5.8233 22.891 7.4063 22.891 7.4063 C20.687 4.4903 17.683 3.0313 13.877 3.0313 C10.834 3.0313 8.307 4.0069 6.297 5.959 C4.285 7.9112 3.281 10.2813 3.281 13.0723 C3.281 14.8867 3.744 16.5947 4.668 18.1953 C5.594 19.7969 6.861 21.0391 8.475 21.9238 C10.088 22.8086 11.896 23.25 13.9 23.25 C17.568 23.25 20.566 21.792 22.891 18.875 C22.891 18.875 25.437 20.5508 25.437 20.5508 C24.242 22.3477 22.637 23.7422 20.623 24.7324 C18.607 25.7227 16.314 26.2188 13.74 26.2188 C9.789 26.2188 6.51 24.9668 3.906 22.461 C1.301 19.9551 0 16.9063 0 13.3154 C0 10.9014 0.609 8.6592 1.826 6.5889 C3.045 4.5186 4.719 2.9024 6.848 1.7412 C8.976 0.5811 11.359 0 13.994 0 C15.648 0 17.244 0.2529 18.785 0.7569 C20.324 1.2608 21.631 1.919 22.703 2.7276 C23.775 3.5381 24.685 4.5694 25.437 5.8233 Z"
       id="path112"
       style="fill:#364b60;fill-opacity:1" />
  </g>
  <g
     transform="translate(188.449, 36.1201)"
     style="fill:#364b60;fill-rule:nonzero;stroke:none;stroke-width:1;stroke-linecap:butt;stroke-linejoin:miter;stroke-dasharray:none;fill-opacity:1"
     id="g118">
    <path
       d="M25.969 0.625 C25.969 0.625 25.969 25.5938 25.969 25.5938 C25.969 25.5938 22.813 25.5938 22.813 25.5938 C22.813 25.5938 22.813 21.3028 22.813 21.3028 C21.467 22.9395 19.957 24.168 18.283 24.9883 C16.61 25.8086 14.78 26.2188 12.793 26.2188 C9.262 26.2188 6.248 24.9395 3.748 22.3799 C1.25 19.8203 0 16.707 0 13.041 C0 9.4502 1.26 6.3789 3.783 3.8281 C6.305 1.2764 9.338 0 12.885 0 C14.934 0 16.787 0.4326 18.446 1.2988 C20.104 2.1651 21.559 3.4707 22.813 5.2149 C22.813 5.2149 22.813 0.625 22.813 0.625 C22.813 0.625 25.969 0.625 25.969 0.625 Z M13.153 3.0938 C11.369 3.0938 9.725 3.5322 8.217 4.4092 C6.709 5.2862 5.508 6.5186 4.617 8.1035 C3.727 9.6904 3.281 11.3682 3.281 13.1377 C3.281 14.8916 3.731 16.5694 4.629 18.1709 C5.528 19.7725 6.735 21.0195 8.25 21.9121 C9.766 22.8047 11.393 23.25 13.129 23.25 C14.881 23.25 16.541 22.8086 18.11 21.9238 C19.68 21.0391 20.887 19.8418 21.733 18.3311 C22.576 16.8213 23 15.1211 23 13.2285 C23 10.3457 22.051 7.9365 20.155 5.999 C18.258 4.0625 15.924 3.0938 13.153 3.0938 Z"
       id="path116"
       style="fill:#364b60;fill-opacity:1" />
  </g>
  <g
     transform="translate(218.588, 36.1201)"
     style="fill:#364b60;fill-rule:nonzero;stroke:none;stroke-width:1;stroke-linecap:butt;stroke-linejoin:miter;stroke-dasharray:none;fill-opacity:1"
     id="g122">
    <path
       d="M0 0.625 C0 0.625 3.219 0.625 3.219 0.625 C3.219 0.625 3.219 4.9395 3.219 4.9395 C4.338 3.3487 5.486 2.1856 6.666 1.4512 C8.289 0.4844 9.998 0 11.791 0 C13 0 14.148 0.2373 15.236 0.711 C16.324 1.1865 17.213 1.8164 17.902 2.6055 C18.592 3.3936 19.189 4.5205 19.695 5.9903 C20.764 4.0322 22.098 2.544 23.701 1.5264 C25.303 0.5088 27.027 0 28.875 0 C30.6 0 32.121 0.4365 33.441 1.3067 C34.762 2.1787 35.742 3.3945 36.383 4.9531 C37.023 6.5137 37.344 8.8526 37.344 11.9707 C37.344 11.9707 37.344 25.5938 37.344 25.5938 C37.344 25.5938 34.062 25.5938 34.062 25.5938 C34.062 25.5938 34.062 11.9746 34.062 11.9746 C34.062 9.2998 33.873 7.4619 33.492 6.461 C33.109 5.46 32.459 4.6533 31.535 4.042 C30.613 3.4307 29.512 3.125 28.232 3.125 C26.676 3.125 25.254 3.584 23.967 4.501 C22.678 5.418 21.736 6.6406 21.142 8.1699 C20.547 9.6973 20.25 12.25 20.25 15.8262 C20.25 15.8262 20.25 25.5938 20.25 25.5938 C20.25 25.5938 17.031 25.5938 17.031 25.5938 C17.031 25.5938 17.031 12.8233 17.031 12.8233 C17.031 9.8125 16.844 7.7686 16.469 6.6904 C16.094 5.6123 15.441 4.749 14.508 4.0996 C13.574 3.4502 12.467 3.125 11.182 3.125 C9.697 3.125 8.308 3.5723 7.017 4.4658 C5.725 5.3613 4.767 6.5645 4.148 8.0781 C3.529 9.5908 3.219 11.9063 3.219 15.0244 C3.219 15.0244 3.219 25.5938 3.219 25.5938 C3.219 25.5938 0 25.5938 0 25.5938 C0 25.5938 0 0.625 0 0.625 Z"
       id="path120"
       style="fill:#364b60;fill-opacity:1" />
  </g>
  <g
     transform="translate(259.908, 36.1201)"
     style="fill:#364b60;fill-rule:nonzero;stroke:none;stroke-width:1;stroke-linecap:butt;stroke-linejoin:miter;stroke-dasharray:none;fill-opacity:1"
     id="g126">
    <path
       d="M0 0.625 C0 0.625 3.219 0.625 3.219 0.625 C3.219 0.625 3.219 5.2149 3.219 5.2149 C4.488 3.4707 5.947 2.1651 7.598 1.2988 C9.246 0.4326 11.088 0 13.121 0 C16.666 0 19.697 1.2764 22.219 3.8281 C24.74 6.3789 26 9.4502 26 13.041 C26 16.707 24.752 19.8203 22.254 22.3799 C19.756 24.9395 16.742 26.2188 13.213 26.2188 C11.227 26.2188 9.401 25.8057 7.735 24.9795 C6.069 24.1533 4.565 22.9219 3.219 21.2852 C3.219 21.2852 3.219 34.7188 3.219 34.7188 C3.219 34.7188 0 34.7188 0 34.7188 C0 34.7188 0 0.625 0 0.625 Z M12.85 3.0938 C10.076 3.0938 7.742 4.0625 5.846 5.999 C3.949 7.9365 3 10.3457 3 13.2285 C3 15.1211 3.424 16.8213 4.27 18.3311 C5.113 19.8418 6.324 21.0391 7.903 21.9238 C9.479 22.8086 11.143 23.25 12.895 23.25 C14.615 23.25 16.235 22.8047 17.75 21.9121 C19.266 21.0195 20.473 19.7725 21.371 18.1709 C22.27 16.5694 22.719 14.8916 22.719 13.1377 C22.719 11.3682 22.274 9.6904 21.383 8.1035 C20.492 6.5186 19.291 5.2862 17.783 4.4092 C16.276 3.5322 14.631 3.0938 12.85 3.0938 Z"
       id="path124"
       style="fill:#364b60;fill-opacity:1" />
  </g>
  <path
     style="fill:url(#linearGradient1478);fill-opacity:1;stroke-width:0.306542"
     d="m 60.934594,27.857458 c -1.40508,0.0065 -2.746899,0.126361 -3.927562,0.335279 -3.478085,0.614463 -4.10957,1.900588 -4.10957,4.272421 v 3.132469 h 8.219141 v 1.044157 h -8.219141 -3.084573 c -2.388711,0 -4.480335,1.435753 -5.134568,4.167047 -0.75465,3.130696 -0.788123,5.084303 0,8.353253 0.584246,2.43328 1.979503,4.167046 4.368215,4.167047 h 2.825928 v -3.755132 c 0,-2.712861 2.347232,-5.10583 5.134568,-5.10583 h 8.209562 c 2.285251,0 4.109572,-1.881602 4.109571,-4.176627 v -7.826384 c 0,-2.227434 -1.879093,-3.900672 -4.109571,-4.272421 -1.411926,-0.235032 -2.876921,-0.341808 -4.282,-0.335279 z m -4.444851,2.519386 c 0.848982,0 1.542287,0.70463 1.542287,1.571025 0,0.863323 -0.693305,1.561445 -1.542287,1.561445 -0.852024,0 -1.542286,-0.698122 -1.542286,-1.561445 0,-0.866395 0.690262,-1.571025 1.542286,-1.571025 z"
     id="path1948" />
  <path
     style="fill:url(#linearGradient1475);fill-opacity:1;stroke-width:0.306542"
     d="m 70.351162,36.641784 v 3.649758 c 0,2.829609 -2.398961,5.211204 -5.134568,5.211204 h -8.209562 c -2.248736,0 -4.10957,1.924615 -4.10957,4.176627 v 7.826384 c 0,2.227435 1.936908,3.537586 4.10957,4.176627 2.601719,0.765008 5.09663,0.903265 8.209562,0 2.069202,-0.599101 4.109572,-1.804796 4.109571,-4.176627 v -3.132469 h -8.209562 v -1.044157 h 8.209562 4.109571 c 2.388713,0 3.278844,-1.666178 4.109568,-4.167047 0.85811,-2.574606 0.821598,-5.050507 0,-8.353253 -0.590332,-2.377977 -1.717819,-4.167047 -4.109568,-4.167047 z m -4.61728,19.819817 c 0.852025,10e-7 1.542287,0.698123 1.542287,1.561444 0,0.866394 -0.690262,1.571026 -1.542287,1.571026 -0.848981,0 -1.542286,-0.704632 -1.542286,-1.571026 10e-7,-0.863321 0.693304,-1.561444 1.542286,-1.561444 z"
     id="path1950" />
</svg>
